PathFileType	4	(X/Y/Z)	C:/Users/beibeiliu/ov580/test_trc/capture2\sequence.11_training_dense_right.trc
DataRate	CameraRate	NumFrames	NumMarkers	Units	OrigDataRate	OrigDataStartFrame	OrigNumFrames
120	120	22	19	mm	120	88	350
Frame#	Time	ThumbCMC			ThumbMCP			ThumbIP			ThumbTip			IndexMCP			IndexPIP			IndexTip			MiddleMCP			MiddlePIP			MiddleTip			RingMCP			RingPIP			RingTip			PinkyMCP			PinkyPIP			PinkyTip			BackHand1			BackHand2			BackHand3	
		X0	Y0	Z0	X1	Y1	Z1	X2	Y2	Z2	X3	Y3	Z3	X4	Y4	Z4	X5	Y5	Z5	X6	Y6	Z6	X7	Y7	Z7	X8	Y8	Z8	X9	Y9	Z9	X10	Y10	Z10	X11	Y11	Z11	X12	Y12	Z12	X13	Y13	Z13	X14	Y14	Z14	X15	Y15	Z15	X16	Y16	Z16	X17	Y17	Z17	X18	Y18	Z18	
87	0.725	228.292	96.5152	-6.47081	241.228	118.768	-23.5324	259.116	134.616	-36.2336	271.927	145.882	-50.7119	257.85	79.8057	-74.9988	269.565	87.2847	-93.4487	283.008	93.1216	-114.887	240.073	63.4458	-89.649	247.216	67.3925	-113.331	249.77	71.1572	-142.458	215.663	58.0466	-94.5428	215.793	61.2205	-120.817	219.495	70.4754	-145.212	184.082	56.9714	-89.5157	180.238	60.2509	-111.192	171.953	59.6078	-136.539	201.91	48.0172	-43.0856	192.203	47.4614	-17.8	221.935	61.2056	-19.8254	
88	0.733333	223.337	103.789	-2.06713	234.908	128.88	-15.9703	248.976	142.65	-30.5791	261.527	155.714	-46.4984	257.49	90.3566	-69.2412	272.585	98.6989	-91.3466	285.949	107.188	-111.369	241.06	70.4	-86.1971	249.537	74.7723	-108.703	258.414	82.6282	-138.06	222.646	67.0075	-92.0612	224.295	69.8876	-118.755	224.357	77.7401	-146.552	191.851	61.2072	-87.4303	183.975	62.0865	-111.827	179.715	61.4629	-137.884	207.778	56.9284	-44.0429	196.582	51.9042	-17.0796	224.776	68.2899	-17.8474	
89	0.741667	219.875	109.512	-3.28058	224.576	134.299	-13.3889	240.795	153.215	-26.0141	248.692	165.588	-38.3853	257.299	101.857	-62.5667	271.676	112.522	-79.0966	284.658	116.652	-105.726	243.172	80.3502	-79.4703	256.248	86.5483	-104.806	264.286	95.5571	-133.026	226.163	72.7824	-88.5593	226.87	74.9898	-112.953	232.946	85.624	-138.235	193.533	62.6821	-87.3705	191.955	64.6713	-107.532	187.643	61.0019	-131.536	206.511	58.0118	-39.7621	194.72	52.467	-16.677	226.484	74.6638	-15.7616	
90	0.75	210.33	114.4	2.54103	215.369	140.534	-11.4635	228.842	160.623	-24.0024	236.557	177.171	-32.8676	256.864	113.025	-55.0293	267.293	121.243	-74.8012	281.052	130.971	-94.1187	244.23	87.8788	-72.6121	257.964	96.4987	-97.0962	266.527	103.073	-122.939	226.455	75.8377	-82.9599	233.92	83.0241	-111.307	237.016	92.425	-136.82	199.686	65.5987	-84.2278	195.134	64.9492	-107.837	196.07	64.8568	-129.534	212.016	63.4623	-38.6081	196.337	55.6733	-8.99551	224.523	80.3857	-10.6119	
91	0.758333	199.504	115.863	2.34488	201.997	145.044	-9.77654	207.431	163.18	-19.5362	216.798	183.354	-27.9235	250.019	122.343	-50.0971	264.866	138.813	-66.9677	276.523	147.963	-85.8064	245.768	99.9007	-67.5546	260.666	109.544	-92.5601	269.862	118.134	-116.348	232.311	85.9083	-78.7766	238.936	90.6081	-106.802	243.521	102.769	-127.255	203.969	67.3702	-82.6892	205.127	70.9495	-107.528	207.051	70.3193	-128.13	213.976	67.1784	-36.174	197.127	56.0537	-10.1996	217.425	86.264	-5.23528	
92	0.766667	190.06	119.799	3.48474	186.559	142.662	-10.7297	192.022	167.678	-16.652	199.173	184.517	-29.4257	242.667	134.759	-41.1222	257.412	151.684	-57.3634	269.061	161.562	-76.3128	245.673	109.374	-59.4151	260.286	122.313	-81.1341	269.748	127.566	-105.744	234.847	94.4027	-72.1328	242.935	97.9636	-94.965	248.912	111.707	-124.841	213.552	72.1208	-82.7921	214.99	75.6618	-99.6332	220.42	76.7691	-126.284	214.281	70.4878	-31.5365	196.746	56.1747	-8.31008	210.994	90.9178	-3.01233	
93	0.775	180.408	117.961	4.63264	173.11	143.193	-7.61754	180.458	168.94	-18.0218	181.712	188.539	-23.8657	234.785	139.588	-35.5287	246.179	158.654	-48.0239	260.259	170.677	-69.5358	241.847	116.683	-50.3003	259.003	127.439	-75.9055	270.088	141.164	-97.5704	235.757	98.6296	-67.5497	244.574	105.032	-88.6093	251.643	118.422	-110.563	217.431	75.8316	-76.9023	220.825	76.477	-97.7538	227.862	79.389	-122.209	215.065	72.0273	-29.7419	194.672	60.1835	-3.6113	209.722	93.7667	-0.407066	
94	0.783333	169.533	113.407	4.89351	161.59	138.162	-8.08686	165.514	166.961	-16.7553	168.663	186.993	-27.8815	228.028	142.926	-34.7091	238.807	163.85	-47.9148	248.183	179.962	-60.7503	239.197	121.399	-47.6242	254.55	135.513	-69.1959	267.171	149.21	-91.3926	236.115	101.328	-63.3133	245.092	108.911	-84.9572	253.118	121.231	-107.992	219.318	80.1148	-70.3715	226.012	81.9259	-93.4473	235.568	83.298	-119.917	212.689	74.6058	-26.7857	197.358	60.5536	-7.52718	201.824	94.2845	5.36262	
95	0.791667	162.944	114.117	4.27345	152.84	136.024	-8.75402	154.403	164.184	-19.9186	156.487	179.705	-30.1981	217.388	145.623	-30.0224	228.107	166.138	-45.98	236.933	182.893	-59.288	233.159	121.198	-45.8198	248.364	139.37	-63.7522	261.344	151.897	-85.8581	232.163	104.908	-57.7087	243.559	114.336	-79.9041	251.346	127.019	-103.928	221.974	81.226	-69.1148	228.509	82.3975	-93.2706	236.677	84.4904	-114.475	212.138	77.4144	-21.3638	197.055	60.1479	-3.93708	199.453	94.3648	1.50663	
96	0.8	156.837	111.951	3.72363	149.347	131.126	-15.1841	145.338	154.655	-21.7736	145.177	175.904	-32.1527	208.937	147.945	-30.1595	215.342	167.091	-42.865	229.105	180.554	-60.1372	229.156	129.454	-45.7421	243.002	140.098	-64.4365	253.624	155.817	-81.5789	228.396	104.109	-57.5997	241.858	118.386	-81.6136	248.008	134.534	-101.613	220.542	77.0635	-67.5043	228.67	86.6504	-90.3479	239.354	84.3211	-109.503	207.545	78.2259	-19.1556	194.878	62.7398	-1.4833	191.701	93.4647	5.70256	
97	0.808333	150.02	107.627	1.38544	142.727	124.381	-16.1506	134.767	149.82	-21.8073	136.219	169.41	-35.5751	202.975	145.039	-32.8073	207.877	165.613	-47.0427	219.183	182.28	-61.4789	223.301	130.578	-45.349	234.119	143.932	-62.0892	248.303	158.996	-83.6721	226.957	107.721	-59.1719	237.487	115.735	-78.9912	244.981	130.129	-102.199	219.413	81.2473	-66.3283	228.217	82.4449	-91.1933	240.937	85.0387	-111.319	207.446	77.7377	-21.4642	195.031	61.2569	-1.00915	187.609	94.7882	4.0196	
98	0.816667	144.393	100.244	1.50278	133.837	117.511	-15.923	130.687	141.184	-26.8723	126.81	164.475	-37.5844	196.572	142.89	-35.0355	202.089	162.498	-49.7435	209.717	184.322	-61.485	219.066	127.174	-46.598	231.118	143.892	-65.1539	240.246	158.679	-81.8023	221.749	104.638	-57.4501	232.815	116.085	-78.048	240.081	129.44	-100.142	218.423	75.6127	-65.896	227.365	86.7262	-88.8068	238.456	87.689	-108.562	202.908	77.6541	-18.6198	192.287	56.618	0.169871	183.469	95.157	2.2796	
99	0.825	142.648	97.8063	-1.11195	131.323	112.64	-20.0564	124.881	138.683	-30.9521	119.261	159.297	-41.091	187.89	142.788	-36.2613	192.183	161.651	-49.8307	203.101	182.322	-66.0555	212.71	129.476	-46.6257	223.734	142.195	-64.9954	234.571	160.378	-84.7115	219.437	106.646	-59.51	231.187	116.243	-81.6414	238.053	128.419	-103.653	220.075	76.6755	-67.9316	226.867	80.2107	-89.4301	239.781	87.6352	-108.097	203.357	77.5399	-22.2471	193.887	55.5121	-1.06272	179.707	91.5609	0.69983	
100	0.833333	141.151	92.3552	-4.01081	126.398	109.86	-20.627	118.239	130.798	-32.3394	117.697	151.363	-46.9378	186.47	139.556	-40.1251	189.05	162.378	-53.77	197.301	177.284	-67.6197	209.27	125.516	-49.8944	221.488	141.558	-68.9905	230.275	157.876	-87.6094	216.993	104.176	-59.5143	227.518	117.758	-81.4072	234.453	131.234	-107.407	216.939	76.8326	-66.2257	224.837	82.4499	-86.5146	238.075	83.9952	-109.637	199.674	77.3387	-20.9818	193.522	55.1868	-2.73807	179.538	89.8644	0.0121455	
101	0.841667	137.979	93.1419	-7.07656	126.38	106.361	-26.1734	114.924	130.78	-36.1934	108.906	144.967	-45.9627	179.378	141.536	-41.4049	182.274	159.788	-55.338	191.85	178.676	-72.6949	206.692	126.374	-52.6674	214.461	140.993	-69.6152	226.453	159.768	-92.7078	213.192	107.458	-60.8326	223.641	117.372	-83.1716	229.92	130.725	-106.863	214.054	78.0862	-66.4449	223.865	82.4481	-89.8202	238.095	86.0426	-109.221	198.364	73.5003	-21.0045	188.764	55.526	-1.98192	177.721	87.8062	-2.7373	
102	0.85	137.476	86.3307	-9.37777	121.337	101.493	-25.9375	110.184	125.272	-38.1636	105.782	137.636	-49.9291	176.464	135.716	-43.7153	179.331	155.47	-58.7393	185.939	174.885	-75.2892	202.375	123.108	-53.2762	213.124	139.946	-73.9336	224.507	156.484	-97.9163	211.096	102.562	-62.2336	220.458	115.643	-83.5275	227.491	128.194	-106.919	215.704	78.0309	-69.6423	222.844	80.2501	-89.6544	236.1	83.3142	-108.946	198.795	77.6781	-23.5611	189.939	53.6294	-0.986234	175.293	85.478	-3.7769	
103	0.858333	131.614	83.0396	-8.4974	118.917	95.8852	-27.8685	108.82	116.601	-40.6223	100.351	136.643	-53.6102	173.339	134.778	-48.9019	171.124	156.16	-63.5657	175.346	175.176	-78.6599	199.104	120.368	-56.3798	205.729	140.287	-76.1731	214.226	156.08	-97.3135	208.422	104.913	-64.6156	217.231	113.318	-84.7397	224.169	125.212	-108.484	215.817	75.6579	-70.6983	221.264	80.1075	-88.1063	235.14	84.1227	-107.501	198.192	75.0099	-23.5139	188.098	55.4741	-0.757508	168.696	86.7911	-3.03719	
104	0.866667	132.172	76.3414	-11.247	113.131	93.7186	-28.2933	105.292	112.103	-43.5451	97.0764	126.786	-55.5151	163.041	131.965	-47.9578	162.73	153.763	-65.4482	170.016	169.712	-82.7968	191.778	124.693	-57.35	201.911	137.208	-77.5244	210.753	152.51	-99.8935	205.943	102.976	-65.7943	212.49	116.349	-87.1269	221.011	123.73	-112.362	212.583	75.2017	-68.5954	219.675	78.1325	-89.8419	233.334	86.5268	-111.45	194.447	73.5584	-20.925	186.839	52.9268	-1.24274	167.884	81.1854	-6.06617	
105	0.875	129.073	74.9201	-12.7804	110.186	87.48	-30.8225	97.8388	107.416	-45.4595	91.178	122.59	-59.4717	158.166	130.422	-52.4705	155.904	148.001	-68.6932	160.118	164.862	-84.9449	187.62	121.242	-60.0012	195.109	134.406	-78.3054	202.899	151.826	-103.182	201.132	105.332	-68.073	207.971	116.398	-89.0975	214.384	124.666	-110.383	210.573	75.4639	-70.2502	217.368	80.3678	-93.4157	229.655	84.1738	-110.839	192.132	75.2119	-24.5624	184.254	55.9167	-1.44895	162.474	83.4827	-8.76669	
106	0.883333	122.01	70.3511	-13.0605	105.878	80.0228	-31.7139	93.8339	99.1184	-48.1405	85.7489	110.315	-61.0506	154.065	124.592	-57.0129	151.494	140.685	-72.3077	152.825	160.854	-90.9715	183.512	117.765	-64.0472	189.677	133.835	-83.956	195.984	150.816	-109.303	196.393	102.781	-68.8447	203.224	111.962	-89.3397	207.429	122.425	-112.421	208.022	71.5574	-69.9511	217.015	74.8737	-94.8385	228.918	78.1726	-110.478	192.881	73.1975	-25.2999	185.778	52.3317	-2.25258	160.308	81.4756	-10.3922	
107	0.891667	119.643	63.8171	-15.3332	106.359	72.5974	-37.6647	90.7016	90.8674	-52.6366	77.8955	103.123	-64.2311	145.558	120.201	-58.0948	139.262	138.865	-76.3651	141.78	156.78	-97.3397	175.643	117.452	-66.7793	179.72	131.005	-86.8605	188.715	143.324	-109.668	191.265	99.4723	-70.6654	202.539	109.446	-94.7746	202.885	119.308	-116.796	206.904	71.2492	-73.7763	213.342	73.5519	-91.37	225.845	80.5131	-112.754	188.517	71.1589	-27.3848	181.459	55.5586	-4.80208	155.902	77.1845	-10.8656	
108	0.9	120.422	57.158	-17.6833	100.565	67.2916	-39.4038	83.0816	80.7346	-53.1813	74.5922	92.9805	-68.9549	140.975	113.166	-61.3426	134.54	132.804	-82.4422	133.046	149.132	-101.504	167.822	109.239	-66.6232	176.844	124.59	-89.8482	178.361	139.945	-114.477	188.665	97.303	-75.152	198.228	105.494	-96.7418	202.009	115.244	-122.866	205.039	70.2719	-76.863	210.446	71.7002	-93.0796	226.607	75.844	-113.64	185.364	67.8447	-28.7755	177.818	54.7006	-5.06869	153.29	75.2442	-12.1297	
